<mxfile host="app.diagrams.net" modified="2023-03-31T11:28:17.695Z" agent="Mozilla/5.0 (Macintosh; Intel Mac OS X 10_15_7) AppleWebKit/537.36 (KHTML, like Gecko) Chrome/111.0.0.0 Safari/537.36" etag="uCn-yiU739-G6hI5rVpW" version="21.1.2" type="device">
  <diagram name="Page-1" id="93VnuNxYh2gsQvyITQv-">
    <mxGraphModel dx="1811" dy="589" grid="1" gridSize="10" guides="1" tooltips="1" connect="1" arrows="1" fold="1" page="1" pageScale="1" pageWidth="827" pageHeight="1169" math="0" shadow="0">
      <root>
        <mxCell id="0" />
        <mxCell id="1" parent="0" />
        <mxCell id="1QkmKIXsnP00DaD5SYNQ-1" style="edgeStyle=orthogonalEdgeStyle;rounded=0;orthogonalLoop=1;jettySize=auto;html=1;" edge="1" parent="1" source="Qxa5S_glfbw3jdkzJXX0-1" target="Qxa5S_glfbw3jdkzJXX0-68">
          <mxGeometry relative="1" as="geometry" />
        </mxCell>
        <mxCell id="Qxa5S_glfbw3jdkzJXX0-1" value="User selects&amp;nbsp;&lt;br&gt;Add Card&lt;br&gt;From Home Page" style="ellipse;whiteSpace=wrap;html=1;fillColor=#dae8fc;strokeColor=#6c8ebf;" parent="1" vertex="1">
          <mxGeometry x="30" y="210" width="120" height="80" as="geometry" />
        </mxCell>
        <mxCell id="1QkmKIXsnP00DaD5SYNQ-3" style="edgeStyle=orthogonalEdgeStyle;rounded=0;orthogonalLoop=1;jettySize=auto;html=1;entryX=0.5;entryY=0;entryDx=0;entryDy=0;" edge="1" parent="1" source="Qxa5S_glfbw3jdkzJXX0-68" target="1QkmKIXsnP00DaD5SYNQ-2">
          <mxGeometry relative="1" as="geometry" />
        </mxCell>
        <mxCell id="Qxa5S_glfbw3jdkzJXX0-68" value="Select Id type and&amp;nbsp;&lt;br&gt;enter UIN Screen" style="rounded=1;whiteSpace=wrap;html=1;fillColor=#dae8fc;strokeColor=#6c8ebf;" parent="1" vertex="1">
          <mxGeometry x="30" y="370" width="120" height="60" as="geometry" />
        </mxCell>
        <mxCell id="1QkmKIXsnP00DaD5SYNQ-7" style="edgeStyle=orthogonalEdgeStyle;rounded=0;orthogonalLoop=1;jettySize=auto;html=1;entryX=1;entryY=0.5;entryDx=0;entryDy=0;exitX=0.5;exitY=1;exitDx=0;exitDy=0;" edge="1" parent="1" source="1QkmKIXsnP00DaD5SYNQ-2" target="1QkmKIXsnP00DaD5SYNQ-4">
          <mxGeometry relative="1" as="geometry">
            <Array as="points">
              <mxPoint x="90" y="650" />
            </Array>
          </mxGeometry>
        </mxCell>
        <mxCell id="1QkmKIXsnP00DaD5SYNQ-9" value="UIN" style="edgeLabel;html=1;align=center;verticalAlign=middle;resizable=0;points=[];" vertex="1" connectable="0" parent="1QkmKIXsnP00DaD5SYNQ-7">
          <mxGeometry x="0.6947" y="-1" relative="1" as="geometry">
            <mxPoint x="21" y="1" as="offset" />
          </mxGeometry>
        </mxCell>
        <mxCell id="1QkmKIXsnP00DaD5SYNQ-8" value="VID" style="edgeStyle=orthogonalEdgeStyle;rounded=0;orthogonalLoop=1;jettySize=auto;html=1;entryX=0;entryY=0.5;entryDx=0;entryDy=0;exitX=0.5;exitY=1;exitDx=0;exitDy=0;" edge="1" parent="1" source="1QkmKIXsnP00DaD5SYNQ-2" target="1QkmKIXsnP00DaD5SYNQ-5">
          <mxGeometry x="0.3333" relative="1" as="geometry">
            <Array as="points">
              <mxPoint x="90" y="650" />
            </Array>
            <mxPoint as="offset" />
          </mxGeometry>
        </mxCell>
        <mxCell id="1QkmKIXsnP00DaD5SYNQ-2" value="Select ID&lt;br&gt;type" style="rhombus;whiteSpace=wrap;html=1;fillColor=#fff2cc;strokeColor=#d6b656;" vertex="1" parent="1">
          <mxGeometry x="25" y="480" width="130" height="80" as="geometry" />
        </mxCell>
        <mxCell id="1QkmKIXsnP00DaD5SYNQ-18" style="edgeStyle=orthogonalEdgeStyle;rounded=0;orthogonalLoop=1;jettySize=auto;html=1;entryX=0;entryY=0.5;entryDx=0;entryDy=0;exitX=0.5;exitY=1;exitDx=0;exitDy=0;" edge="1" parent="1" source="1QkmKIXsnP00DaD5SYNQ-4" target="1QkmKIXsnP00DaD5SYNQ-17">
          <mxGeometry relative="1" as="geometry">
            <Array as="points">
              <mxPoint x="-70" y="760" />
            </Array>
          </mxGeometry>
        </mxCell>
        <mxCell id="1QkmKIXsnP00DaD5SYNQ-4" value="Enter UIN" style="rounded=1;whiteSpace=wrap;html=1;fillColor=#dae8fc;strokeColor=#6c8ebf;" vertex="1" parent="1">
          <mxGeometry x="-130" y="620" width="120" height="60" as="geometry" />
        </mxCell>
        <mxCell id="1QkmKIXsnP00DaD5SYNQ-19" style="edgeStyle=orthogonalEdgeStyle;rounded=0;orthogonalLoop=1;jettySize=auto;html=1;entryX=1;entryY=0.5;entryDx=0;entryDy=0;" edge="1" parent="1" source="1QkmKIXsnP00DaD5SYNQ-5" target="1QkmKIXsnP00DaD5SYNQ-17">
          <mxGeometry relative="1" as="geometry">
            <Array as="points">
              <mxPoint x="270" y="760" />
            </Array>
          </mxGeometry>
        </mxCell>
        <mxCell id="1QkmKIXsnP00DaD5SYNQ-5" value="Enter VID" style="rounded=1;whiteSpace=wrap;html=1;fillColor=#dae8fc;strokeColor=#6c8ebf;" vertex="1" parent="1">
          <mxGeometry x="210" y="620" width="120" height="60" as="geometry" />
        </mxCell>
        <mxCell id="1QkmKIXsnP00DaD5SYNQ-22" style="edgeStyle=orthogonalEdgeStyle;rounded=0;orthogonalLoop=1;jettySize=auto;html=1;entryX=0.5;entryY=0;entryDx=0;entryDy=0;" edge="1" parent="1" source="1QkmKIXsnP00DaD5SYNQ-10" target="1QkmKIXsnP00DaD5SYNQ-21">
          <mxGeometry relative="1" as="geometry" />
        </mxCell>
        <mxCell id="1QkmKIXsnP00DaD5SYNQ-23" value="Request VC" style="edgeLabel;html=1;align=center;verticalAlign=middle;resizable=0;points=[];" vertex="1" connectable="0" parent="1QkmKIXsnP00DaD5SYNQ-22">
          <mxGeometry x="-0.1462" y="-2" relative="1" as="geometry">
            <mxPoint y="1" as="offset" />
          </mxGeometry>
        </mxCell>
        <mxCell id="1QkmKIXsnP00DaD5SYNQ-10" value="Enter OTP&lt;br&gt;Screen" style="rounded=1;whiteSpace=wrap;html=1;fillColor=#dae8fc;strokeColor=#6c8ebf;" vertex="1" parent="1">
          <mxGeometry x="30" y="870" width="120" height="60" as="geometry" />
        </mxCell>
        <mxCell id="1QkmKIXsnP00DaD5SYNQ-20" value="Request OTP Emal/SMS" style="edgeStyle=orthogonalEdgeStyle;rounded=0;orthogonalLoop=1;jettySize=auto;html=1;" edge="1" parent="1" source="1QkmKIXsnP00DaD5SYNQ-17" target="1QkmKIXsnP00DaD5SYNQ-10">
          <mxGeometry relative="1" as="geometry" />
        </mxCell>
        <mxCell id="1QkmKIXsnP00DaD5SYNQ-17" value="Validate&lt;br&gt;Input" style="rhombus;whiteSpace=wrap;html=1;fillColor=#fff2cc;strokeColor=#d6b656;" vertex="1" parent="1">
          <mxGeometry x="25" y="720" width="130" height="80" as="geometry" />
        </mxCell>
        <mxCell id="1QkmKIXsnP00DaD5SYNQ-25" value="Go to Home Page" style="edgeStyle=orthogonalEdgeStyle;rounded=0;orthogonalLoop=1;jettySize=auto;html=1;" edge="1" parent="1" source="1QkmKIXsnP00DaD5SYNQ-21" target="1QkmKIXsnP00DaD5SYNQ-24">
          <mxGeometry relative="1" as="geometry" />
        </mxCell>
        <mxCell id="1QkmKIXsnP00DaD5SYNQ-21" value="Card Downloading&lt;br&gt;message Screen&amp;nbsp;" style="rounded=1;whiteSpace=wrap;html=1;fillColor=#dae8fc;strokeColor=#6c8ebf;" vertex="1" parent="1">
          <mxGeometry x="30" y="1060" width="120" height="60" as="geometry" />
        </mxCell>
        <mxCell id="1QkmKIXsnP00DaD5SYNQ-27" style="edgeStyle=orthogonalEdgeStyle;rounded=0;orthogonalLoop=1;jettySize=auto;html=1;entryX=0.5;entryY=0;entryDx=0;entryDy=0;" edge="1" parent="1" source="1QkmKIXsnP00DaD5SYNQ-24" target="1QkmKIXsnP00DaD5SYNQ-26">
          <mxGeometry relative="1" as="geometry" />
        </mxCell>
        <mxCell id="1QkmKIXsnP00DaD5SYNQ-24" value="Home Page" style="ellipse;whiteSpace=wrap;html=1;fillColor=#dae8fc;strokeColor=#6c8ebf;" vertex="1" parent="1">
          <mxGeometry x="30" y="1200" width="120" height="80" as="geometry" />
        </mxCell>
        <mxCell id="1QkmKIXsnP00DaD5SYNQ-26" value="" style="ellipse;html=1;shape=endState;fillColor=#000000;strokeColor=#ff0000;" vertex="1" parent="1">
          <mxGeometry x="75" y="1320" width="30" height="30" as="geometry" />
        </mxCell>
      </root>
    </mxGraphModel>
  </diagram>
</mxfile>
